HIERARCHY
ROOT Hips
{
  OFFSET 4.37462 39.1106 -19.7285
  CHANNELS 6 Xposition Yposition Zposition Zrotation Xrotation Yrotation
  JOINT LeftHip
  {
    OFFSET 3.43 1.06581e-013 7.10543e-015
    CHANNELS 6 Xposition Yposition Zposition Zrotation Xrotation Yrotation
    JOINT LeftKnee
    {
      OFFSET -3.55271e-015 -18.47 4.44089e-015
      CHANNELS 6 Xposition Yposition Zposition Zrotation Xrotation Yrotation
      JOINT LeftAnkle
      {
        OFFSET 7.10543e-015 -17.95 -1.77636e-015
        CHANNELS 6 Xposition Yposition Zposition Zrotation Xrotation Yrotation
        End Site
        {
          OFFSET 0 -3.12 0
        }
      }
    }
  }
  JOINT RightHip
  {
    OFFSET -3.43 -1.7053e-013 -4.9738e-014
    CHANNELS 6 Xposition Yposition Zposition Zrotation Xrotation Yrotation
    JOINT RightKnee
    {
      OFFSET -1.77636e-015 -18.47 -4.44089e-015
      CHANNELS 6 Xposition Yposition Zposition Zrotation Xrotation Yrotation
      JOINT RightAnkle
      {
        OFFSET -1.24345e-014 -17.95 0
        CHANNELS 6 Xposition Yposition Zposition Zrotation Xrotation Yrotation
        End Site
        {
          OFFSET 0 -3.12 0
        }
      }
    }
  }
  JOINT Chest
  {
    OFFSET -1.59872e-014 4.57 -2.13163e-014
    CHANNELS 6 Xposition Yposition Zposition Zrotation Xrotation Yrotation
    JOINT Chest2
    {
      OFFSET 3.55271e-015 6.57 8.88178e-015
      CHANNELS 6 Xposition Yposition Zposition Zrotation Xrotation Yrotation
      JOINT LeftCollar
      {
        OFFSET 1.06 4.19 1.76
        CHANNELS 6 Xposition Yposition Zposition Zrotation Xrotation Yrotation
        JOINT LeftShoulder
        {
          OFFSET 5.81 -1.06581e-013 3.9968e-015
          CHANNELS 6 Xposition Yposition Zposition Zrotation Xrotation Yrotation
          JOINT LeftElbow
          {
            OFFSET 2.13163e-014 -12.08 -5.32907e-014
            CHANNELS 6 Xposition Yposition Zposition Zrotation Xrotation Yrotation
            JOINT LeftWrist
            {
              OFFSET 7.10543e-015 -9.82 -2.22045e-015
              CHANNELS 6 Xposition Yposition Zposition Zrotation Xrotation Yrotation
              End Site
              {
                OFFSET 0 -7.37 0
              }
            }
          }
        }
      }
      JOINT RightCollar
      {
        OFFSET -1.06 4.19 1.76
        CHANNELS 6 Xposition Yposition Zposition Zrotation Xrotation Yrotation
        JOINT RightShoulder
        {
          OFFSET -6.06 4.9738e-014 -4.79616e-014
          CHANNELS 6 Xposition Yposition Zposition Zrotation Xrotation Yrotation
          JOINT RightElbow
          {
            OFFSET 2.13163e-014 -11.08 -1.35003e-013
            CHANNELS 6 Xposition Yposition Zposition Zrotation Xrotation Yrotation
            JOINT RightWrist
            {
              OFFSET 1.42109e-014 -9.82 -1.77636e-015
              CHANNELS 6 Xposition Yposition Zposition Zrotation Xrotation Yrotation
              End Site
              {
                OFFSET 0 -7.14001 0
              }
            }
          }
        }
      }
      JOINT Neck
      {
        OFFSET 3.90799e-014 4.05 8.21565e-015
        CHANNELS 6 Xposition Yposition Zposition Zrotation Xrotation Yrotation
        JOINT Head
        {
          OFFSET 3.55271e-015 5.19 -1.77636e-015
          CHANNELS 6 Xposition Yposition Zposition Zrotation Xrotation Yrotation
          End Site
          {
            OFFSET 0 4.14001 0
          }
        }
      }
    }
  }
}
MOTION
Frames:	4
Frame Time:	0.0333333
-6.9663 39.9339 -12.6866 3.44508 -0.724313 -1.55063 3.43 2.80361e-013 5.16728e-012 -3.97248 -14.2182 1.20158 -3.55271e-015 -18.47 4.44089e-015 0.879316 20.1984 29.4482 7.10543e-015 -17.95 -1.77636e-015 -2.6811 2.4406 0.0558 -3.43 -2.33478e-013 1.60009e-013 -4.50755 -3.73461 -7.29353 -1.77636e-015 -18.47 -4.44089e-015 -1.37419 24.6334 -4.04337 -1.24345e-014 -17.95 0 3.4084 -12.2718 0.367989 1.08361e-011 4.57 3.15508e-013 -0.77904 -1.37337 -2.1156 3.55271e-015 6.57 8.88178e-015 -0.57495 -1.28324 -1.95576 1.06 4.19 1.76 9.60834 -0.0870072 -4.69487 5.81 9.93868e-013 3.9968e-015 133.104 -77.8861 90.4418 2.13163e-014 -12.08 -6.15229e-012 -2.58551 -27.6041 -18.3241 7.10543e-015 -9.82 -2.22045e-015 0.406772 2.08802 -0.0149313 -1.06 4.19 1.76 4.87638 0.965385 5.152 -6.06 -5.84934e-013 -2.41528e-012 -162.35 -80.4529 -96.1227 2.13163e-014 -11.08 -1.313e-012 12.9222 -12.8316 17.8284 1.42109e-014 -9.82 -1.77636e-015 -20.1216 3.11085 0.555786 3.90799e-014 4.05 8.21565e-015 -0.517369 12.2647 0.459196 3.55271e-015 5.19 -1.77636e-015 1.29727 -4.90594 -0.592431 
-7.2034 39.6548 -13.0314 4.37226 -1.10722 -2.26908 3.43 3.87202e-013 5.1734e-012 -4.6522 -14.8468 0.583982 -3.55271e-015 -18.47 4.44089e-015 1.20884 21.454 29.9662 7.10543e-015 -17.95 -1.77636e-015 -3.51044 1.40606 0.0432175 -3.43 -2.47437e-013 1.43845e-013 -4.20015 -0.965241 -6.84595 -1.77636e-015 -18.47 -4.44089e-015 -1.98174 18.7983 -6.13163 -1.24345e-014 -17.95 0 3.46304 -15.092 0.458212 1.08154e-011 4.57 3.10072e-013 -1.22656 -1.4092 -1.2435 3.55271e-015 6.57 8.88178e-015 -1.03941 -1.30889 -1.18515 1.06 4.19 1.76 11.3108 -0.172439 -4.23558 5.81 9.96974e-013 3.9968e-015 145.161 -75.7923 105.341 2.13163e-014 -12.08 -6.16062e-012 -1.39145 -24.6023 -19.4641 7.10543e-015 -9.82 -2.22045e-015 1.75146 0.818847 -0.00407445 -1.06 4.19 1.76 5.5783 1.03012 5.31501 -6.06 -5.69617e-013 -2.37603e-012 178.41 -75.7837 -118.1 2.13163e-014 -11.08 -1.31649e-012 12.2677 -4.61178 19.8087 1.42109e-014 -9.82 -1.77636e-015 -22.9345 3.18101 0.643121 3.90799e-014 4.05 8.21565e-015 -0.496079 12.9444 0.232383 3.55271e-015 5.19 -1.77636e-015 1.16934 -6.75903 -0.931554 
-7.45474 39.4981 -13.5074 5.16502 -1.52225 -3.25287 3.43 4.56033e-013 5.17936e-012 -4.98971 -15.7125 0.276037 -3.55271e-015 -18.47 4.44089e-015 1.30176 22.6998 30.4303 7.10543e-015 -17.95 -1.77636e-015 -4.15187 1.7262 0.0633919 -3.43 -2.56088e-013 1.27464e-013 -4.13162 -2.005 -6.72763 -1.77636e-015 -18.47 -4.44089e-015 -2.16013 19.5395 -8.52876 -1.24345e-014 -17.95 0 3.18116 -16.4324 0.459635 1.07945e-011 4.57 3.04565e-013 -1.34613 -1.03097 -0.0860616 3.55271e-015 6.57 8.88178e-015 -1.2205 -0.953234 -0.137081 1.06 4.19 1.76 9.47034 -0.0514455 -4.33564 5.81 9.99063e-013 3.9968e-015 146.516 -74.4247 106.923 2.13163e-014 -12.08 -6.16877e-012 -0.992541 -26.9475 -18.0078 7.10543e-015 -9.82 -2.22045e-015 4.32741 -0.815444 0.0298065 -1.06 4.19 1.76 7.23803 1.15978 5.40989 -6.06 -5.50809e-013 -2.33625e-012 174.167 -73.0086 -124.099 2.13163e-014 -11.08 -1.31996e-012 11.6747 -2.0448 17.4275 1.42109e-014 -9.82 -1.77636e-015 -27.9528 1.78637 0.437472 3.90799e-014 4.05 8.21565e-015 -0.842411 13.3119 0.103383 3.55271e-015 5.19 -1.77636e-015 0.941312 -8.64196 -1.30109 
-7.65939 39.3611 -14.0499 5.42457 -1.52356 -3.73653 3.43 4.86436e-013 5.18517e-012 -4.80976 -17.7704 0.0914868 -3.55271e-015 -18.47 4.44089e-015 1.37238 25.2478 29.5018 7.10543e-015 -17.95 -1.77636e-015 -4.85087 2.34497 0.0982438 -3.43 -2.59636e-013 1.10869e-013 -4.52152 -5.05832 -7.08456 -1.77636e-015 -18.47 -4.44089e-015 -1.39111 23.7296 -9.39603 -1.24345e-014 -17.95 0 2.6111 -17.4963 0.401545 1.07734e-011 4.57 2.98985e-013 -1.07728 -0.461902 0.412801 3.55271e-015 6.57 8.88178e-015 -0.999294 -0.43169 0.324286 1.06 4.19 1.76 7.0853 0.143112 -3.87372 5.81 1.00016e-012 3.9968e-015 139.914 -74.2259 100.167 2.13163e-014 -12.08 -6.17674e-012 -0.585015 -35.0582 -15.3762 7.10543e-015 -9.82 -2.22045e-015 5.58646 -1.27183 0.060837 -1.06 4.19 1.76 8.83081 1.3132 5.71413 -6.06 -5.28424e-013 -2.29594e-012 178.851 -73.2721 -121.738 2.13163e-014 -11.08 -1.32341e-012 11.056 -7.50447 12.0065 1.42109e-014 -9.82 -1.77636e-015 -32.4316 0.181635 0.0509453 3.90799e-014 4.05 8.21565e-015 -0.775002 12.4165 0.16232 3.55271e-015 5.19 -1.77636e-015 0.191186 -9.00902 -1.23759 
